# xmcd
#
# Track frame offsets: 
#        150
#        16615
#        35025
#        46478
#        58258
#        71261
#        83095
#        91727
#        111485
#        128544
#        140314
#
# Disc length: 1998 seconds
#
# Revision: 0
# Processed by: cddbd v1.5.2PL0 Copyright (c) Steve Scherf et al.
# Submitted via: ExactAudioCopy v1.0b3
#
DISCID=8a07cc0b
DTITLE=Highwaymen - Highwaymen {5-CD Box} [CD 4: Abilene)
DYEAR=2008
DGENRE=Country
TTITLE0=Willie Nelson - Angel Flying Too Close To The Ground
TTITLE1=Johnny Cash - Orange Blossom Special
TTITLE2=Waylon Jennings - Lorena
TTITLE3=Willie Nelson - December Day
TTITLE4=Johnny Cash - Folsom Prison Blues
TTITLE5=Willie Nelson - Life And Love
TTITLE6=Johnny Cash - The Wall
TTITLE7=Kris Kristofferson - Sugar Man
TTITLE8=Willie Nelson - I Let My Mind Wonder
TTITLE9=Johnny Cash - These Hands
TTITLE10=Waylon Jennings - Abilene
EXTD=
EXTT0=
EXTT1=
EXTT2=
EXTT3=
EXTT4=
EXTT5=
EXTT6=
EXTT7=
EXTT8=
EXTT9=
EXTT10=
PLAYORDER=
